HIERARCHY
ROOT Hips
{
	OFFSET 0.00000 0.00000 0.00000
	CHANNELS 6 Xposition Yposition Zposition Zrotation Yrotation Xrotation 
	JOINT LHipJoint
	{
		OFFSET 0 0 0
		CHANNELS 3 Zrotation Yrotation Xrotation
		JOINT LeftUpLeg
		{
			OFFSET 1.26600 -1.82114 0.91038
			CHANNELS 3 Zrotation Yrotation Xrotation
			JOINT LeftLeg
			{
				OFFSET 2.50076 -6.87080 0.00000
				CHANNELS 3 Zrotation Yrotation Xrotation
				JOINT LeftFoot
				{
					OFFSET 2.57364 -7.07102 0.00000
					CHANNELS 3 Zrotation Yrotation Xrotation
					JOINT LeftToeBase
					{
						OFFSET 0.13572 -0.37290 1.97004
						CHANNELS 3 Zrotation Yrotation Xrotation
						End Site
						{
							OFFSET 0.00000 -0.00000 1.01383
						}
					}
				}
			}
		}
	}
	JOINT RHipJoint
	{
		OFFSET 0 0 0
		CHANNELS 3 Zrotation Yrotation Xrotation
		JOINT RightUpLeg
		{
			OFFSET -1.20803 -1.82114 0.91038
			CHANNELS 3 Zrotation Yrotation Xrotation
			JOINT RightLeg
			{
				OFFSET -2.54916 -7.00377 0.00000
				CHANNELS 3 Zrotation Yrotation Xrotation
				JOINT RightFoot
				{
					OFFSET -2.56374 -7.04382 0.00000
					CHANNELS 3 Zrotation Yrotation Xrotation
					JOINT RightToeBase
					{
						OFFSET -0.23520 -0.64621 2.09921
						CHANNELS 3 Zrotation Yrotation Xrotation
						End Site
						{
							OFFSET -0.00000 -0.00000 1.10065
						}
					}
				}
			}
		}
	}
	JOINT LowerBack
	{
		OFFSET 0 0 0
		CHANNELS 3 Zrotation Yrotation Xrotation
		JOINT Spine
		{
			OFFSET 0.05492 2.10797 -0.12074
			CHANNELS 3 Zrotation Yrotation Xrotation
			JOINT Spine1
			{
				OFFSET 0.04577 2.11592 -0.04483
				CHANNELS 3 Zrotation Yrotation Xrotation
				JOINT Neck
				{
					OFFSET 0 0 0
					CHANNELS 3 Zrotation Yrotation Xrotation
					JOINT Neck1
					{
						OFFSET -0.10759 1.80167 0.15770
						CHANNELS 3 Zrotation Yrotation Xrotation
						JOINT Head
						{
							OFFSET 0.09237 1.77509 -0.40848
							CHANNELS 3 Zrotation Yrotation Xrotation
							End Site
							{
								OFFSET 0.03805 1.84093 -0.15754
							}
						}
					}
				}
				JOINT LeftShoulder
				{
					OFFSET 0 0 0
					CHANNELS 3 Zrotation Yrotation Xrotation
					JOINT LeftArm
					{
						OFFSET 3.42372 1.09575 -0.28209
						CHANNELS 3 Zrotation Yrotation Xrotation
						JOINT LeftForeArm
						{
							OFFSET 4.95681 -0.00000 0.00000
							CHANNELS 3 Zrotation Yrotation Xrotation
							JOINT LeftHand
							{
								OFFSET 3.40915 -0.00000 0.00000
								CHANNELS 3 Zrotation Yrotation Xrotation
								JOINT LeftFingerBase
								{
									OFFSET 0 0 0
									CHANNELS 3 Zrotation Yrotation Xrotation
									JOINT LeftHandIndex1
									{
										OFFSET 0.61640 -0.00000 0.00000
										CHANNELS 3 Zrotation Yrotation Xrotation
										End Site
										{
											OFFSET 0.49696 -0.00000 0.00000
										}
									}
								}
								JOINT LThumb
								{
									OFFSET 0 0 0
									CHANNELS 3 Zrotation Yrotation Xrotation
									End Site
									{
										OFFSET 0.50455 -0.00000 0.50455
									}
								}
							}
						}
					}
				}
				JOINT RightShoulder
				{
					OFFSET 0 0 0
					CHANNELS 3 Zrotation Yrotation Xrotation
					JOINT RightArm
					{
						OFFSET -3.24731 1.15872 -0.32221
						CHANNELS 3 Zrotation Yrotation Xrotation
						JOINT RightForeArm
						{
							OFFSET -5.35200 -0.00000 0.00000
							CHANNELS 3 Zrotation Yrotation Xrotation
							JOINT RightHand
							{
								OFFSET -3.43721 -0.00000 -0.00000
								CHANNELS 3 Zrotation Yrotation Xrotation
								JOINT RightFingerBase
								{
									OFFSET 0 0 0
									CHANNELS 3 Zrotation Yrotation Xrotation
									JOINT RightHandIndex1
									{
										OFFSET -0.72009 -0.00000 0.00000
										CHANNELS 3 Zrotation Yrotation Xrotation
										End Site
										{
											OFFSET -0.58056 -0.00000 0.00000
										}
									}
								}
								JOINT RThumb
								{
									OFFSET 0 0 0
									CHANNELS 3 Zrotation Yrotation Xrotation
									End Site
									{
										OFFSET -0.58942 -0.00000 0.58942
									}
								}
							}
						}
					}
				}
			}
		}
	}
}
MOTION
Frames: 12
Frame Time: .0083333
-14.1486 17.2339 12.1206 0 0 0 0 0 0 -21 0 0 0 0 0 0 0 0 0 0 0 0 0 0 21 0 0 0 0 0 0 0 0 0 0 0 0 0 0 0 0 0 0 0 0 0 0 -16 0 0 21 0 0 11 0 0 0 -8 0 0 0 0 0 0 0 0 0 0 0 0 0 0 0 0 0 0 0 0 8 0 0 0 0 0 0 0 0 0 0 0 0 0 0 0 0 0
-14.1486 17.2339 12.1206 -176.0420 3.0826 -175.1570 0.0000 0.0000 0.0000 -14.3622 -4.7515 -14.9406 4.0653 12.2469 36.6109 0.5668 -17.5421 -17.1396 0.1145 2.1815 6.0076 0.0000 0.0000 0.0000 28.3537 -5.9001 -12.3090 -3.5052 -11.4711 33.8856 -2.0641 -4.0826 -28.8438 -0.0987 -2.0262 5.5781 3.6510 0.9970 0.5526 2.8907 1.4865 0.1666 0.9086 0.7986 -0.1265 -6.1916 -0.8709 -15.4139 -2.0796 6.3181 37.8199 1.7412 2.9161 16.0681 -0.0000 -0.0000 0.0000 -89.0637 0.9416 23.1878 15.7004 -25.1127 -3.5178 -0.0000 0.0000 -2.8851 15.8369 20.8125 5.7554 -7.1250 0.0000 -0.0000 -12.8328 51.0930 -1.9537 -0.0000 -0.0000 0.0000 87.4398 0.8079 10.6316 -11.7755 19.4671 -2.0269 0.0000 -0.0000 -6.0932 -20.0794 13.8277 -4.9930 7.1250 -0.0000 -0.0000 5.0154 -15.3332 3.5244
-14.1470 17.2331 12.1202 -176.0750 2.9850 -175.1910 0.0000 0.0000 0.0000 -14.3831 -4.8326 -14.8629 4.0470 12.2227 36.5242 0.5625 -17.6203 -17.1447 0.1172 2.2067 6.0772 0.0000 0.0000 0.0000 28.3412 -5.7978 -12.3066 -3.5261 -11.5016 33.9909 -2.0870 -4.0320 -28.9676 -0.1389 -2.4022 6.6185 3.6259 0.9507 0.6074 2.8864 1.4276 0.1565 0.9172 0.7684 -0.1688 -6.2159 -0.8634 -15.3402 -2.0474 6.3384 37.8439 1.7628 2.9316 16.0599 -0.0000 -0.0000 0.0000 -89.0503 0.9267 23.2599 15.5409 -24.8943 -3.4504 -0.0000 0.0000 -3.2776 17.5905 16.4814 5.1396 -7.1250 0.0000 -0.0000 -9.7304 46.9861 -0.4813 -0.0000 -0.0000 0.0000 87.4521 0.7743 10.8162 -11.7837 19.4794 -2.0296 0.0000 -0.0000 -6.0891 -20.1690 13.9521 -5.0611 7.1250 -0.0000 -0.0000 4.9587 -15.1933 3.4992
-14.1469 17.2311 12.1188 -176.0910 3.0014 -175.2380 0.0000 0.0000 0.0000 -14.3863 -4.6807 -14.8164 4.0221 12.1898 36.4068 0.5245 -17.7557 -16.9198 0.1556 2.5418 7.0056 0.0000 0.0000 0.0000 28.3159 -5.7204 -12.3212 -3.5538 -11.5417 34.1292 -2.0903 -4.0453 -28.9953 -0.1423 -2.4309 6.6980 3.6384 0.9481 0.7459 2.8685 1.4333 0.1097 0.8882 0.7690 -0.2936 -6.1795 -0.8988 -15.3750 -2.0472 6.3283 37.9891 1.7631 2.9364 16.1451 0.0000 0.0000 0.0000 -88.9949 0.9911 23.4467 15.2991 -24.5612 -3.3493 -0.0000 0.0000 -3.9051 18.7100 15.2993 5.1066 -7.1250 0.0000 -0.0000 -8.3839 45.9190 -0.1915 0.0000 0.0000 0.0000 87.5106 0.6984 10.9580 -11.8531 19.5840 -2.0528 0.0000 -0.0000 -6.1293 -20.1853 13.4941 -4.9032 7.1250 -0.0000 -0.0000 4.9310 -15.6737 3.4284
-14.1504 17.2359 12.1149 -176.3770 3.1581 -175.1930 0.0000 0.0000 0.0000 -14.7198 -4.6299 -14.8181 4.0041 12.1659 36.3213 0.4921 -17.8135 -16.6981 0.2269 3.0660 8.4625 0.0000 0.0000 0.0000 27.9285 -5.8256 -12.4885 -3.5767 -11.5747 34.2436 -2.0946 -3.7639 -28.8914 -0.1441 -2.4464 6.7410 3.4126 0.9887 0.7769 2.7740 1.4789 0.0665 0.9155 0.7868 -0.3575 -6.0241 -0.9038 -15.4498 -2.1941 6.3322 38.0033 1.6759 2.9361 16.1829 0.0000 -0.0000 0.0000 -88.9931 0.9367 22.6162 15.1890 -24.4088 -3.3037 -0.0000 0.0000 -1.9566 15.7396 19.7947 5.4520 -7.1250 0.0000 -0.0000 -12.5415 50.0627 -1.5871 0.0000 -0.0000 0.0000 87.5085 0.6863 11.1462 -11.9064 19.6642 -2.0707 0.0000 -0.0000 -6.0946 -20.0258 12.7745 -4.6076 7.1250 -0.0000 -0.0000 5.0177 -16.4466 3.4050
-14.1536 17.2414 12.1106 -176.5850 3.3049 -175.1140 0.0000 0.0000 0.0000 -14.9675 -4.6549 -14.8081 3.9863 12.1422 36.2368 0.5074 -17.7743 -16.7967 0.2289 3.0793 8.4997 0.0000 0.0000 0.0000 27.6409 -6.0067 -12.7006 -3.6056 -11.6161 34.3872 -2.0965 -3.5639 -28.8126 -0.1211 -2.2434 6.1787 3.2765 1.0584 0.7295 2.6709 1.5605 0.0286 0.8855 0.8237 -0.3695 -5.8177 -0.8886 -15.3440 -2.2033 6.2576 37.9368 1.6173 2.9361 16.1263 0.0000 0.0000 0.0000 -88.9431 0.9458 22.2322 15.0637 -24.2348 -3.2520 -0.0000 0.0000 -1.2635 13.6030 23.1908 5.4433 -7.1250 0.0000 -0.0000 -16.0445 53.0492 -3.2436 0.0000 0.0000 0.0000 87.5297 0.6268 11.3576 -11.9548 19.7369 -2.0870 0.0000 -0.0000 -6.1429 -19.8714 12.5095 -4.4764 7.1250 -0.0000 -0.0000 5.1172 -16.7393 3.4404
-14.1527 17.2357 12.1114 -176.4900 3.3056 -175.0980 0.0000 0.0000 0.0000 -14.8471 -4.4801 -14.8392 3.9679 12.1175 36.1490 0.5150 -17.7581 -16.8475 0.1554 2.5400 7.0006 0.0000 0.0000 0.0000 27.7655 -5.9149 -12.7490 -3.6407 -11.6663 34.5616 -2.1102 -3.7071 -28.9660 -0.1078 -2.1172 5.8296 3.3745 1.0798 0.7786 2.6695 1.5947 0.0068 0.8277 0.8405 -0.4165 -5.9484 -0.9294 -15.3072 -2.0581 6.1242 37.8365 1.6721 2.8764 16.0556 0.0000 -0.0000 0.0000 -88.8803 1.1388 22.1543 15.0657 -24.2375 -3.2529 -0.0000 0.0000 -1.2233 16.8722 21.6631 6.3882 -7.1250 0.0000 -0.0000 -12.1589 52.1168 -2.1565 0.0000 -0.0000 0.0000 87.5923 0.5455 11.5574 -12.0626 19.8984 -2.1235 0.0000 -0.0000 -6.2879 -19.7983 12.3165 -4.3911 7.1250 -0.0000 -0.0000 5.1628 -16.9488 3.4477
-14.1516 17.2199 12.1161 -176.4580 3.2724 -175.1280 0.0000 0.0000 0.0000 -14.8009 -4.2281 -14.9334 3.9511 12.0950 36.0689 0.4901 -17.7313 -16.6397 0.0772 1.7927 4.9332 0.0000 0.0000 0.0000 27.8159 -5.7869 -12.7584 -3.6779 -11.7190 34.7450 -2.1420 -3.7254 -29.1777 -0.1171 -2.2061 6.0755 3.4136 1.0704 0.8824 2.6524 1.5852 0.0667 0.7868 0.8359 -0.4119 -5.9175 -0.9537 -15.4439 -2.0630 6.0163 37.7336 1.6414 2.8174 16.0374 0.0000 -0.0000 0.0000 -88.8296 1.1439 21.8885 15.0673 -24.2397 -3.2535 -0.0000 0.0000 -0.9572 11.1511 29.3513 5.5188 -7.1250 0.0000 -0.0000 -22.2066 58.3923 -7.5120 0.0000 -0.0000 0.0000 87.6540 0.6943 11.7358 -12.1419 20.0171 -2.1506 0.0000 -0.0000 -6.4944 -19.9268 12.2742 -4.4070 7.1250 -0.0000 -0.0000 5.0724 -16.9819 3.3831
-14.1545 17.2024 12.1179 -176.5630 3.3982 -175.1910 0.0000 0.0000 0.0000 -14.9508 -3.9265 -15.0080 3.9397 12.0798 36.0148 0.4948 -17.6037 -16.6117 0.0175 0.8544 2.3482 0.0000 0.0000 0.0000 27.6409 -5.7230 -12.7191 -3.7127 -11.7679 34.9158 -2.1920 -3.4325 -29.3636 -0.1308 -2.3312 6.4219 3.3462 1.1030 0.9527 2.5910 1.6238 0.1403 0.7604 0.8542 -0.3753 -5.7844 -0.9302 -15.4867 -2.1470 5.9872 37.6149 1.5714 2.8027 15.9934 -0.0000 0.0000 0.0000 -88.8011 1.0399 21.6777 15.0123 -24.1632 -3.2310 -0.0000 0.0000 -0.7852 16.7162 22.8198 6.6436 -7.1250 0.0000 -0.0000 -12.7970 53.2435 -2.6288 -0.0000 0.0000 0.0000 87.6672 0.8678 11.9154 -12.1634 20.0492 -2.1580 0.0000 -0.0000 -6.7699 -20.0340 12.7324 -4.5948 7.1250 -0.0000 -0.0000 5.0107 -16.4902 3.3955
-14.1575 17.1948 12.1169 -176.6960 3.5567 -175.2410 0.0000 0.0000 0.0000 -15.1238 -3.7301 -14.9967 3.9383 12.0779 36.0080 0.5215 -17.6407 -16.8385 0.0066 0.5241 1.4402 0.0000 0.0000 0.0000 27.4284 -5.7330 -12.7115 -3.7396 -11.8056 35.0477 -2.2265 -3.2171 -29.4860 -0.1465 -2.4668 6.7977 3.2134 1.1314 1.0182 2.5626 1.6593 0.1586 0.8037 0.8705 -0.3955 -5.8030 -0.8890 -15.3992 -2.1105 5.9973 37.5039 1.5848 2.8091 15.9119 0.0000 -0.0000 0.0000 -88.7930 1.2136 21.9289 15.0373 -24.1980 -3.2412 -0.0000 0.0000 -1.6180 16.0396 21.2621 5.9519 -7.1250 0.0000 -0.0000 -12.8135 51.5745 -2.1037 0.0000 -0.0000 0.0000 87.6341 0.9519 11.9928 -12.1799 20.0739 -2.1637 0.0000 -0.0000 -6.7957 -19.9475 12.6097 -4.5301 7.1250 -0.0000 -0.0000 5.0672 -16.6272 3.4189
-14.1589 17.1937 12.1174 -176.6280 3.6631 -175.1970 0.0000 0.0000 0.0000 -15.0323 -3.8107 -14.9796 3.9472 12.0899 36.0506 0.5237 -17.7656 -16.9187 0.0266 1.0528 2.8940 0.0000 0.0000 0.0000 27.4846 -5.7145 -12.8151 -3.7576 -11.8307 35.1356 -2.2266 -3.2057 -29.4816 -0.1639 -2.6086 7.1910 3.3474 1.1836 1.0856 2.5303 1.7339 0.1546 0.6933 0.9070 -0.4319 -5.7492 -0.8833 -15.4689 -2.0543 5.9376 37.4672 1.5874 2.7908 15.9073 -0.0000 -0.0000 0.0000 -88.6654 1.3556 22.4018 14.9264 -24.0435 -3.1959 -0.0000 0.0000 -3.1264 17.8990 15.9777 5.0804 -7.1250 0.0000 -0.0000 -9.3073 46.5119 -0.3502 -0.0000 -0.0000 0.0000 87.6948 1.0166 12.0128 -12.2449 20.1709 -2.1860 0.0000 -0.0000 -6.6689 -20.1026 11.9510 -4.3341 7.1250 -0.0000 -0.0000 4.9416 -17.3071 3.2600
-14.1600 17.1880 12.1214 -176.4320 3.7001 -175.1320 0.0000 0.0000 0.0000 -14.7734 -3.7800 -15.0818 3.9605 12.1077 36.1141 0.4968 -17.9561 -16.8074 0.0446 1.3636 3.7499 0.0000 0.0000 0.0000 27.7109 -5.5525 -12.8519 -3.7753 -11.8552 35.2216 -2.2417 -3.1573 -29.5558 -0.1872 -2.7863 7.6843 3.6623 1.2442 1.2141 2.5000 1.8288 0.1349 0.4818 0.9538 -0.5125 -5.5485 -0.9147 -15.7648 -2.1224 5.8953 37.6223 1.5278 2.7793 16.0662 0.0000 0.0000 0.0000 -88.5486 1.2006 21.5894 14.7239 -23.7601 -3.1138 -0.0000 0.0000 -1.0847 16.3298 11.7913 3.4262 -7.1250 0.0000 -0.0000 -9.7302 42.0490 0.7159 0.0000 0.0000 0.0000 87.7547 1.0526 12.0663 -12.3135 20.2731 -2.2097 0.0000 -0.0000 -6.7226 -20.2675 12.0217 -4.3981 7.1250 -0.0000 -0.0000 4.8285 -17.2183 3.1942
